<?xml version="1.0" encoding="utf-8"?>
<!-- Generator: Adobe Illustrator 28.1.0, SVG Export Plug-In . SVG Version: 6.00 Build 0)  -->
<svg version="1.1" id="Layer_1" xmlns="http://www.w3.org/2000/svg" xmlns:xlink="http://www.w3.org/1999/xlink" x="0px" y="0px"
	 viewBox="0 0 450.2 77.4" style="enable-background:new 0 0 450.2 77.4;" xml:space="preserve">
<style type="text/css">
	.st0{fill:#e62177;}
	.st1{fill:#FFFFFF;stroke:#FFFFFF;stroke-width:0.5;stroke-miterlimit:10;}
</style>
<polygon class="st0" points="49.9,0 0,0 0,11.1 43.5,11.1 "/>
<polygon class="st0" points="0,66.3 0,77.4 49.9,77.4 43.5,66.3 "/>
<polygon class="st0" points="75.4,0 62.6,0 49.9,22.1 0,22.1 0,33.2 56.3,33.2 "/>
<polygon class="st0" points="0,44.2 0,55.3 49.9,55.3 62.6,77.4 75.4,77.4 56.3,44.2 "/>
<path class="st1" d="M115.4,40.3h-1.2v17.8h-4.4V18.5h4.4v18.6c0.6,0,1.3,0,1.9-0.2c0.4-0.2,0.7-0.4,1-0.6c0.7-0.5,1.3-1.1,1.8-1.8
	c0.8-0.9,1.6-1.9,2.5-3c2.3-3.2,4-5.5,5-6.9l2.4-3.7c0.6-1,1.1-1.8,1.4-2.3h5.1c-0.3,0.5-0.6,1.1-0.9,1.6c-1.5,2.3-2.7,4.1-3.6,5.3
	l-5,6.7l-2.3,2.8c-1.5,1.8-2.5,2.8-3.1,3v0.2l0.8,0.3c1.2,0.5,2.7,1.9,4.6,4.4l11.4,15.3h-5.6l-8.3-11.8c-2.8-3.9-5.1-5.9-7.1-6
	C116,40.4,115.7,40.3,115.4,40.3z"/>
<path class="st1" d="M175.1,46.5h-16l-3.7,11.6h-4.6l13-39.6h6l13.9,39.6h-4.7L175.1,46.5z M160.4,42.8h13.5l-7-20.8l-0.8,3
	L160.4,42.8z"/>
<path class="st1" d="M217.1,45.7c-0.7,0-1.9,0-3.7,0c-2.5-0.1-4.9-0.3-7.3-0.7v13.1h-4.4V18.7c5-0.5,10-0.7,15-0.7
	c4.2,0,7.1,0.9,8.8,2.8c1.4,1.6,2.1,4.2,2.1,7.9v3.1c0,2.4-0.3,4.9-0.9,7.2C225.3,43.2,222.1,45.4,217.1,45.7z M216.8,21.7
	c-4.7,0-8.3,0.1-10.8,0.3v19.5c2.7,0.4,5.4,0.6,8.1,0.6c1.7,0.1,3.4-0.1,5.1-0.5c1-0.3,1.8-0.9,2.4-1.7c1-1.3,1.5-4,1.5-8v-3.2
	c0-2.5-0.5-4.2-1.5-5.3S219,21.7,216.8,21.7z"/>
<path class="st1" d="M263,45.7c-0.7,0-2,0-3.7,0c-2.5-0.1-4.9-0.3-7.3-0.7v13.1h-4.4V18.7c5-0.5,10-0.7,15-0.7
	c4.2,0,7.1,0.9,8.8,2.8c1.4,1.6,2.1,4.2,2.1,7.9v3.1c0.1,2.4-0.3,4.9-0.9,7.2C271.2,43.2,268,45.4,263,45.7z M262.7,21.7
	c-4.7,0-8.3,0.1-10.8,0.3v19.5c2.7,0.4,5.4,0.6,8.1,0.6c1.7,0.1,3.4-0.1,5.1-0.5c1-0.3,1.8-0.9,2.4-1.7c1-1.3,1.5-4,1.5-8v-3.3
	c0-2.5-0.5-4.2-1.5-5.3S264.9,21.7,262.7,21.7z"/>
<path class="st1" d="M298.2,22.4h-10.6v-3.8h25.9v3.8h-10.9v35.8h-4.4V22.4z"/>
<path class="st1" d="M330,18.5h4.4v21.2c-0.1,2.9,0.1,5.7,0.5,8.5c0.2,1.2,0.7,2.4,1.2,3.4c0.5,0.8,1.1,1.4,1.9,1.8
	c1.8,1,3.9,1.4,5.9,1.3c1.9,0.1,3.8-0.1,5.7-0.7c1.2-0.4,2.3-1.2,2.9-2.3c0.8-1.4,1.3-3,1.4-4.6c0.3-2.5,0.4-5,0.4-7.5V18.5h4.4v21
	c0.1,3.1-0.1,6.1-0.5,9.2c-0.3,1.5-0.7,2.9-1.4,4.3c-0.6,1.2-1.4,2.2-2.5,3c-2.2,1.8-5.5,2.6-9.9,2.6c-6.5,0-10.7-1.9-12.6-5.6
	c-1.2-2.6-1.8-5.4-1.8-8.3c0-1.6-0.1-3.2-0.1-4.9V18.5z"/>
<path class="st1" d="M380.9,18.7c5.6-0.4,10.3-0.6,14.1-0.7h0.5c4.1,0,7.1,0.9,8.7,2.8c1.4,1.6,2.1,4.2,2.1,7.9
	c0,4.7-0.7,8.1-2,10.4c-1.5,2.4-4,4-6.8,4.4c0.6,0.7,1.2,1.5,1.7,2.3l1.5,2.2l6.8,10.2h-5.1l-6-9.4c-1.1-1.8-2.3-3.4-3.7-5h-0.3
	l-3.5-0.1l-3.8-0.2v14.6h-4.4L380.9,18.7z M385.3,40.1c1.8,0.1,4.7,0.1,8.5,0.1c3.2,0,5.4-0.9,6.5-2.7c1-1.6,1.5-4.3,1.5-8.2
	c0-3.3-0.7-5.5-2.2-6.5c-0.8-0.6-1.8-0.9-2.8-1c-1-0.1-1.9-0.1-2.7-0.1h-2.2h-2.1c-0.7,0-1.4,0-2.1,0.1l-2.3,0.2L385.3,40.1z"/>
<path class="st1" d="M426.9,18.5h22.4v3.8h-18V36h14.5v3.8h-14.6v14.5H450v3.8h-23.1V18.5z"/>
</svg>
